<?xml version="1.0" encoding="UTF-8" standalone="no"?>
<svg width="808px" height="249px" viewBox="0 0 808 249" version="1.1" xmlns="http://www.w3.org/2000/svg" xmlns:xlink="http://www.w3.org/1999/xlink">
    <defs></defs>
    <g id="Page-1" stroke="none" stroke-width="1" fill="none" fill-rule="evenodd">
        <g id="htdn">
            <g id="nomadwiki-logo-copy-6" transform="translate(19.500000, 26.000000)">
                <g id="oval-+-Digital-Nomad-+-How-to">
                    <g id="oval">
                        <circle id="Oval-1" fill="#FF3F4C" cx="100" cy="100" r="100"></circle>
                        <path d="M119.883448,157.828196 C137.704607,151.804739 151.804737,137.704609 157.828196,119.883451 L157.828198,119.883445 C158.541559,119.960478 159.266164,120 160,120 C171.045695,120 180,111.045695 180,100 C180,88.954305 171.045695,80 160,80 C159.151367,80 158.315079,80.0528549 157.494248,80.1554525 C151.27968,62.7472183 137.315807,49.0204289 119.756647,43.1291028 L119.756647,43.1291028 C119.916835,42.1095881 120,41.0645062 120,40 C120,28.954305 111.045695,20 100,20 C88.954305,20 80,28.954305 80,40 C80,41.1783402 80.1019031,42.3328797 80.297375,43.4552874 C63.1359817,49.5332371 49.5332383,63.1359802 43.4552881,80.2973732 C42.3328797,80.1019031 41.1783402,80 40,80 C28.954305,80 20,88.954305 20,100 C20,111.045695 28.954305,120 40,120 C41.0645062,120 42.1095881,119.916835 43.1291028,119.756647 L43.1291041,119.756651 C49.0204306,137.315808 62.7472179,151.279679 80.1554491,157.494247 C80.0528549,158.315079 80,159.151367 80,160 C80,171.045695 88.954305,180 100,180 C111.045695,180 120,171.045695 120,160 C120,159.266164 119.960478,158.541559 119.883445,157.828198 Z M100,140 C122.09139,140 140,122.09139 140,100 C140,77.90861 122.09139,60 100,60 C77.90861,60 60,77.90861 60,100 C60,122.09139 77.90861,140 100,140 Z" id="Oval-2" fill="#FFFFFF"></path>
                    </g>
                    <g id="Digital-Nomad-+-How-to" transform="translate(223.000000, 42.000000)">
                        <path d="M0.76,106 L21.16,106 C38.04,106 53,96.16 53,77.84 C53,57.12 37.72,49.36 19.48,49.36 L0.76,49.36 L0.76,106 Z M13.24,60.88 L20.6,60.88 C31.16,60.88 40.04,66.08 40.04,77.2 C40.04,90.08 31.32,94.48 19.72,94.48 L13.24,94.48 L13.24,60.88 Z M60.12,106 L72.12,106 L72.12,67.12 L60.12,67.12 L60.12,106 Z M59.16,54.88 C59.16,58.72 62.28,61.84 66.12,61.84 C69.96,61.84 73.08,58.72 73.08,54.88 C73.08,51.04 69.96,47.92 66.12,47.92 C62.28,47.92 59.16,51.04 59.16,54.88 L59.16,54.88 Z M121.56,67.12 L110.52,67.12 L110.52,72.24 L110.36,72.24 C108.52,69.44 103.88,66.16 97.08,66.16 C86.04,66.16 79.32,76.08 79.32,86.4 C79.32,98.16 86.92,106.48 98.44,106.48 C102.04,106.48 106.68,105.12 109.4,101.36 L109.56,101.36 L109.56,105.12 C109.56,110.64 106.12,114.64 98.84,114.64 C93.96,114.64 89.88,112.72 86.2,109.6 L79.56,119.52 C85.16,124 92.2,125.2 99.08,125.2 C114.12,125.2 121.56,117.36 121.56,102.72 L121.56,67.12 Z M91.32,86.32 C91.32,81.28 95.48,76.72 100.92,76.72 C106.36,76.72 110.52,81.28 110.52,86.32 C110.52,91.36 106.36,95.92 100.92,95.92 C95.48,95.92 91.32,91.36 91.32,86.32 L91.32,86.32 Z M131.32,106 L143.32,106 L143.32,67.12 L131.32,67.12 L131.32,106 Z M130.36,54.88 C130.36,58.72 133.48,61.84 137.32,61.84 C141.16,61.84 144.28,58.72 144.28,54.88 C144.28,51.04 141.16,47.92 137.32,47.92 C133.48,47.92 130.36,51.04 130.36,54.88 L130.36,54.88 Z M178.44,67.12 L167.88,67.12 L167.88,55.6 L155.88,55.6 L155.88,67.12 L148.2,67.12 L148.2,76.72 L155.88,76.72 L155.88,95.2 C155.88,103.68 162.04,106.96 170.04,106.96 C172.84,106.96 175.8,106.72 178.44,105.76 L178.44,95.76 C177.4,96.72 174.84,96.88 173.56,96.88 C168.36,96.88 167.88,93.84 167.88,89.68 L167.88,76.72 L178.44,76.72 L178.44,67.12 Z M208.92,106 L219.96,106 L219.96,86.24 C219.96,73.28 216.2,66.16 202.2,66.16 C195.88,66.16 189.48,68.24 185.08,72.4 L191.48,78.96 C194.04,76.08 197.32,74.32 201.24,74.32 C205.4,74.32 208.92,77.04 208.92,81.28 C198.92,81.28 182.6,81.52 182.6,94.96 C182.6,102.8 189.16,106.96 196.44,106.96 C201.32,106.96 206.12,105.28 208.76,101.12 L208.92,101.12 L208.92,106 Z M208.92,88.96 L208.92,91.52 C208.92,96.32 204.52,98.8 199.8,98.8 C197.16,98.8 194.12,97.44 194.12,94.56 C194.12,89.28 202.28,88.96 205.96,88.96 L208.92,88.96 Z M227.64,106 L239.64,106 L239.64,45.52 L227.64,45.52 L227.64,106 Z M273.48,106 L285.96,106 L285.96,65.68 L286.12,65.68 L310.84,106 L327.16,106 L327.16,49.36 L314.68,49.36 L314.68,88.72 L314.52,88.72 L290.44,49.36 L273.48,49.36 L273.48,106 Z M335.72,86.56 C335.72,98.96 345.32,106.96 357.32,106.96 C369.32,106.96 378.92,98.96 378.92,86.56 C378.92,74.16 369.32,66.16 357.32,66.16 C345.32,66.16 335.72,74.16 335.72,86.56 L335.72,86.56 Z M347.72,86.56 C347.72,80.72 351.32,76.72 357.32,76.72 C363.32,76.72 366.92,80.72 366.92,86.56 C366.92,92.4 363.32,96.4 357.32,96.4 C351.32,96.4 347.72,92.4 347.72,86.56 L347.72,86.56 Z M385.96,106 L397.96,106 L397.96,86.64 C397.96,81.6 398.92,76.72 405.16,76.72 C410.68,76.72 410.52,82.56 410.52,85.44 L410.52,106 L422.52,106 L422.52,85.44 C422.52,80.64 424.28,76.72 429.8,76.72 C433.72,76.72 435.08,79.76 435.08,83.36 L435.08,106 L447.08,106 L447.08,83.04 C447.08,73.6 443.88,66.16 433.32,66.16 C427.56,66.16 423.8,68.16 421,73.12 C418.92,68.4 414.44,66.16 409,66.16 C403.16,66.16 399.24,69.36 397.64,72.4 L397.48,72.4 L397.48,67.12 L385.96,67.12 L385.96,106 Z M479.96,106 L491,106 L491,86.24 C491,73.28 487.24,66.16 473.24,66.16 C466.92,66.16 460.52,68.24 456.12,72.4 L462.52,78.96 C465.08,76.08 468.36,74.32 472.28,74.32 C476.44,74.32 479.96,77.04 479.96,81.28 C469.96,81.28 453.64,81.52 453.64,94.96 C453.64,102.8 460.2,106.96 467.48,106.96 C472.36,106.96 477.16,105.28 479.8,101.12 L479.96,101.12 L479.96,106 Z M479.96,88.96 L479.96,91.52 C479.96,96.32 475.56,98.8 470.84,98.8 C468.2,98.8 465.16,97.44 465.16,94.56 C465.16,89.28 473.32,88.96 477,88.96 L479.96,88.96 Z M539.32,45.52 L527.32,45.52 L527.32,71.28 L527.16,71.28 C524.44,67.52 519.8,66.16 514.84,66.16 C503.8,66.16 497.08,76.08 497.08,86.88 C497.08,98.64 504.68,106.96 516.2,106.96 C521.64,106.96 526.28,103.68 528.12,100.88 L528.28,100.88 L528.28,106 L539.32,106 L539.32,45.52 Z M528.28,86.56 C528.28,92.4 524.68,96.4 518.68,96.4 C512.68,96.4 509.08,92.4 509.08,86.56 C509.08,80.72 512.68,76.72 518.68,76.72 C524.68,76.72 528.28,80.72 528.28,86.56 L528.28,86.56 Z" id="Digital-Nomad" fill="#5C5C5C"></path>
                        <path d="M0.555,32 L6.225,32 L6.225,17.96 L21.12,17.96 L21.12,32 L26.79,32 L26.79,0.14 L21.12,0.14 L21.12,12.83 L6.225,12.83 L6.225,0.14 L0.555,0.14 L0.555,32 Z M32.325,21.2 C32.325,27.995 37.545,32.54 44.07,32.54 C50.595,32.54 55.815,27.995 55.815,21.2 C55.815,14.405 50.595,9.86 44.07,9.86 C37.545,9.86 32.325,14.405 32.325,21.2 L32.325,21.2 Z M37.725,21.2 C37.725,17.825 40.11,14.72 44.07,14.72 C48.03,14.72 50.415,17.825 50.415,21.2 C50.415,24.575 48.03,27.68 44.07,27.68 C40.11,27.68 37.725,24.575 37.725,21.2 L37.725,21.2 Z M65.445,32 L71.025,32 L75.57,17.24 L75.66,17.24 L80.79,32 L86.145,32 L93.48,10.4 L88.035,10.4 L83.535,25.52 L83.445,25.52 L78.765,10.4 L72.915,10.4 L68.55,25.52 L68.46,25.52 L63.78,10.4 L57.93,10.4 L65.445,32 Z M111.93,14.99 L111.93,24.89 C111.93,29.975 113.28,32.54 118.995,32.54 C120.255,32.54 122.145,32.36 123.27,31.82 L123.27,27.275 C122.595,27.77 121.29,27.95 120.345,27.95 C117.96,27.95 117.33,26.6 117.33,24.44 L117.33,14.99 L123.27,14.99 L123.27,10.4 L117.33,10.4 L117.33,4.145 L111.93,4.145 L111.93,10.4 L107.475,10.4 L107.475,14.99 L111.93,14.99 Z M126.42,21.2 C126.42,27.995 131.64,32.54 138.165,32.54 C144.69,32.54 149.91,27.995 149.91,21.2 C149.91,14.405 144.69,9.86 138.165,9.86 C131.64,9.86 126.42,14.405 126.42,21.2 L126.42,21.2 Z M131.82,21.2 C131.82,17.825 134.205,14.72 138.165,14.72 C142.125,14.72 144.51,17.825 144.51,21.2 C144.51,24.575 142.125,27.68 138.165,27.68 C134.205,27.68 131.82,24.575 131.82,21.2 L131.82,21.2 Z" id="How-to" fill="#FF3F4C"></path>
                    </g>
                </g>
            </g>
        </g>
    </g>
</svg>