<?xml version="1.0" encoding="UTF-8" standalone="no"?>
<svg width="1180px" height="240px" viewBox="0 0 1180 240" version="1.1" xmlns="http://www.w3.org/2000/svg" xmlns:xlink="http://www.w3.org/1999/xlink">
    <defs></defs>
    <g id="Page-1" stroke="none" stroke-width="1" fill="none" fill-rule="evenodd">
        <g id="NomadWikiLogo-Rast">
            <g id="nomadwiki-logo" transform="translate(20.000000, 20.000000)">
                <g id="oval">
                    <circle id="Oval-1" fill="#FF3F4C" cx="100" cy="100" r="100"></circle>
                    <path d="M119.883448,157.828196 C137.704607,151.804739 151.804737,137.704609 157.828196,119.883451 L157.828198,119.883445 C158.541559,119.960478 159.266164,120 160,120 C171.045695,120 180,111.045695 180,100 C180,88.954305 171.045695,80 160,80 C159.151367,80 158.315079,80.0528549 157.494248,80.1554525 C151.27968,62.7472183 137.315807,49.0204289 119.756647,43.1291028 L119.756647,43.1291028 C119.916835,42.1095881 120,41.0645062 120,40 C120,28.954305 111.045695,20 100,20 C88.954305,20 80,28.954305 80,40 C80,41.1783402 80.1019031,42.3328797 80.297375,43.4552874 C63.1359817,49.5332371 49.5332383,63.1359802 43.4552881,80.2973732 C42.3328797,80.1019031 41.1783402,80 40,80 C28.954305,80 20,88.954305 20,100 C20,111.045695 28.954305,120 40,120 C41.0645062,120 42.1095881,119.916835 43.1291028,119.756647 L43.1291041,119.756651 C49.0204306,137.315808 62.7472179,151.279679 80.1554491,157.494247 C80.0528549,158.315079 80,159.151367 80,160 C80,171.045695 88.954305,180 100,180 C111.045695,180 120,171.045695 120,160 C120,159.266164 119.960478,158.541559 119.883445,157.828198 Z M100,140 C122.09139,140 140,122.09139 140,100 C140,77.90861 122.09139,60 100,60 C77.90861,60 60,77.90861 60,100 C60,122.09139 77.90861,140 100,140 Z" id="Oval-2" fill="#FFFFFF"></path>
                </g>
                <path d="M240.096,160 L266.304,160 L266.304,75.328 L266.64,75.328 L318.552,160 L352.824,160 L352.824,41.056 L326.616,41.056 L326.616,123.712 L326.28,123.712 L275.712,41.056 L240.096,41.056 L240.096,160 Z M364.7,119.176 C364.7,145.216 384.86,162.016 410.06,162.016 C435.26,162.016 455.42,145.216 455.42,119.176 C455.42,93.136 435.26,76.336 410.06,76.336 C384.86,76.336 364.7,93.136 364.7,119.176 L364.7,119.176 Z M389.9,119.176 C389.9,106.912 397.46,98.512 410.06,98.512 C422.66,98.512 430.22,106.912 430.22,119.176 C430.22,131.44 422.66,139.84 410.06,139.84 C397.46,139.84 389.9,131.44 389.9,119.176 L389.9,119.176 Z M466.704,160 L491.904,160 L491.904,119.344 C491.904,108.76 493.92,98.512 507.024,98.512 C518.616,98.512 518.28,110.776 518.28,116.824 L518.28,160 L543.48,160 L543.48,116.824 C543.48,106.744 547.176,98.512 558.768,98.512 C567,98.512 569.856,104.896 569.856,112.456 L569.856,160 L595.056,160 L595.056,111.784 C595.056,91.96 588.336,76.336 566.16,76.336 C554.064,76.336 546.168,80.536 540.288,90.952 C535.92,81.04 526.512,76.336 515.088,76.336 C502.824,76.336 494.592,83.056 491.232,89.44 L490.896,89.44 L490.896,78.352 L466.704,78.352 L466.704,160 Z M660.604,160 L683.788,160 L683.788,118.504 C683.788,91.288 675.892,76.336 646.492,76.336 C633.22,76.336 619.78,80.704 610.54,89.44 L623.98,103.216 C629.356,97.168 636.244,93.472 644.476,93.472 C653.212,93.472 660.604,99.184 660.604,108.088 C639.604,108.088 605.332,108.592 605.332,136.816 C605.332,153.28 619.108,162.016 634.396,162.016 C644.644,162.016 654.724,158.488 660.268,149.752 L660.604,149.752 L660.604,160 Z M660.604,124.216 L660.604,129.592 C660.604,139.672 651.364,144.88 641.452,144.88 C635.908,144.88 629.524,142.024 629.524,135.976 C629.524,124.888 646.66,124.216 654.388,124.216 L660.604,124.216 Z M781.76,39.992 L756.56,39.992 L756.56,87.088 L756.224,87.088 C750.512,79.192 740.768,76.336 730.352,76.336 C707.168,76.336 693.056,97.168 693.056,119.848 C693.056,144.544 709.016,162.016 733.208,162.016 C744.632,162.016 754.376,155.128 758.24,149.248 L758.576,149.248 L758.576,160 L781.76,160 L781.76,39.992 Z M758.576,119.176 C758.576,131.44 751.016,139.84 738.416,139.84 C725.816,139.84 718.256,131.44 718.256,119.176 C718.256,106.912 725.816,98.512 738.416,98.512 C751.016,98.512 758.576,106.912 758.576,119.176 L758.576,119.176 Z M827.96,160 L850.472,160 L876.68,77.68 L903.224,160 L926.576,160 L961.352,40.056 L934.808,40.056 L914.816,119.344 L889.784,40.056 L865.424,40.056 L840.56,117.328 L821.24,40.056 L792.68,40.056 L827.96,160 Z M970.056,160 L995.256,160 L995.256,78.352 L970.056,78.352 L970.056,160 Z M1009.9,160 L1035.1,160 L1035.1,118.672 L1035.436,118.672 L1062.988,160 L1094.74,160 L1061.476,115.144 L1093.9,78.352 L1062.988,78.352 L1035.1,110.608 L1035.1,39.992 L1009.9,39.992 L1009.9,160 Z M1100.144,160 L1125.344,160 L1125.344,78.352 L1100.144,78.352 L1100.144,160 Z M983,62 C990.179702,62 996,56.1797017 996,49 C996,41.8202983 990.179702,36 983,36 C975.820298,36 970,41.8202983 970,49 C970,56.1797017 975.820298,62 983,62 Z M1113,62 C1120.1797,62 1126,56.1797017 1126,49 C1126,41.8202983 1120.1797,36 1113,36 C1105.8203,36 1100,41.8202983 1100,49 C1100,56.1797017 1105.8203,62 1113,62 Z" id="NomadWiki" fill="#5C5C5C"></path>
            </g>
        </g>
    </g>
</svg>